<?xml version="1.0" encoding="utf-8"?>
<!-- Generator: Adobe Illustrator 23.0.5, SVG Export Plug-In . SVG Version: 6.00 Build 0)  -->
<svg version="1.1" id="Capa_1" xmlns="http://www.w3.org/2000/svg" xmlns:xlink="http://www.w3.org/1999/xlink" x="0px" y="0px"
	 viewBox="0 0 512 512" style="enable-background:new 0 0 512 512;" xml:space="preserve">
<style type="text/css">
	.st0{fill:#F97537;}
</style>
<g>
	<path class="st0" d="M492.3,111.7L259.9-0.5c-1.2-0.6-2.5-0.9-3.9-0.9s-2.7,0.3-3.9,0.9L19.7,111.7c-3.1,1.5-5,4.6-5,8v272.5
		c0,3.4,2,6.6,5,8l232.5,112.2c1.2,0.6,2.5,0.9,3.9,0.9c1.3,0,2.7-0.3,3.9-0.9l232.5-112.2c3.1-1.5,5-4.6,5-8V119.7
		C497.4,116.3,495.4,113.2,492.3,111.7z M357.1,268.4V193l38.3-18.5V250L357.1,268.4z M136.2,75.6l40.7-19.7l211.6,102.2l-40.8,19.7
		L136.2,75.6z M409,148.2c-0.3-0.2-0.5-0.3-0.8-0.4L197.1,45.9L256,17.4l212,102.3L409,148.2z M223.9,216.5
		c-2.1,4.4-0.3,9.8,4.2,11.9l19,9.2v252.7L32.4,386.7V133.9l163.6,79c1.2,0.6,2.5,0.9,3.9,0.9c3.4,0,6.6-2,8-5
		c2.1-4.4,0.3-9.8-4.2-11.9L44,119.7l71.2-34.4l224,108.1v89.2c0,3.1,1.6,5.9,4.2,7.6c1.4,0.9,3.1,1.4,4.7,1.4
		c1.3,0,2.7-0.3,3.9-0.9l56.1-27.1c3.1-1.5,5-4.6,5-8V166l66.3-32v252.7L264.9,490.3V237.5l51.1-24.7c4.4-2.1,6.3-7.5,4.2-11.9
		c-1.5-3.1-4.6-5-8-5c-1.3,0-2.7,0.3-3.9,0.9L256,222l-20.2-9.7c-1.2-0.6-2.5-0.9-3.9-0.9C228.5,211.4,225.4,213.4,223.9,216.5z"/>
	<path class="st0" d="M93.5,357.2l-34.1-16.5c-1.2-0.6-2.5-0.9-3.9-0.9c-3.4,0-6.6,2-8,5c-2.1,4.4-0.3,9.8,4.2,11.9l34.1,16.5
		c1.2,0.6,2.5,0.9,3.9,0.9c3.4,0,6.6-2,8-5C99.8,364.7,98,359.3,93.5,357.2z"/>
	<path class="st0" d="M124.9,336.8l-65.5-31.6c-1.2-0.6-2.5-0.9-3.9-0.9c-3.4,0-6.6,2-8,5c-2.1,4.4-0.3,9.8,4.2,11.9l65.5,31.6
		c1.2,0.6,2.5,0.9,3.9,0.9c3.4,0,6.6-2,8-5c1-2.1,1.2-4.6,0.4-6.8C128.7,339.6,127.1,337.8,124.9,336.8z"/>
</g>
</svg>
